<svg width="1837" height="2568" viewBox="0 0 1837 2568" fill="none" xmlns="http://www.w3.org/2000/svg">
<g opacity="0.3" filter="url(#filter0_f_261_922)">
<g clip-path="url(#clip0_261_922)">
<path d="M210.584 1262.75C208.204 1261.82 205.611 1261.58 203.101 1262.05C201.446 1260.64 199.664 1259.4 197.586 1258.59C191.255 1256.12 184.282 1257.3 177.891 1260.47C171.501 1263.65 165.289 1268.82 159.166 1275.54C157.238 1277.66 155.334 1279.98 153.435 1282.4C150.902 1280.66 148.383 1279.01 145.912 1277.57C138.061 1272.99 130.587 1269.91 123.54 1268.79C116.492 1267.67 109.489 1268.63 104.186 1272.87C98.8825 1277.12 96.4144 1283.75 95.9679 1290.87C95.5215 1297.99 96.8964 1305.96 99.6536 1314.62C100.521 1317.35 101.576 1320.16 102.72 1323.01C99.9479 1324.34 97.2657 1325.69 94.7821 1327.11C92.1693 1328.6 89.7876 1330.17 87.5161 1331.76C80.7127 1329.69 73.4659 1333.21 70.8765 1339.83C69.5503 1343.24 69.6526 1347.04 71.1603 1350.38C69.8714 1353.76 69.3023 1357.3 69.8534 1360.9C70.8804 1367.62 75.3856 1373.07 81.3299 1377.02C87.2742 1380.96 94.861 1383.76 103.741 1385.7C106.536 1386.31 109.508 1386.8 112.55 1387.24C112.31 1390.3 112.137 1393.3 112.123 1396.16C112.081 1405.25 113.149 1413.27 115.703 1419.93C118.257 1426.59 122.591 1432.18 128.921 1434.65C135.251 1437.12 142.225 1435.94 148.615 1432.77C155.006 1429.59 161.218 1424.42 167.341 1417.7C169.268 1415.58 171.173 1413.26 173.071 1410.84C175.604 1412.58 178.124 1414.23 180.595 1415.67C182.751 1416.93 184.866 1418.05 186.964 1419.07C186.716 1424.89 190.19 1430.22 195.611 1432.34C202.619 1435.07 210.515 1431.6 213.248 1424.6C213.266 1424.54 213.282 1424.49 213.299 1424.43C216.594 1423.8 219.67 1422.49 222.321 1420.37C227.624 1416.12 230.092 1409.49 230.539 1402.37C230.985 1395.25 229.61 1387.28 226.853 1378.62C225.986 1375.89 224.931 1373.08 223.787 1370.23C226.559 1368.91 229.241 1367.55 231.725 1366.13C239.618 1361.62 246.025 1356.69 250.518 1351.14C255.01 1345.6 257.68 1339.05 256.653 1332.34C255.626 1325.62 251.121 1320.17 245.177 1316.23C239.232 1312.28 231.646 1309.49 222.766 1307.54C219.971 1306.93 216.998 1306.44 213.957 1306.01C214.196 1302.94 214.37 1299.94 214.383 1297.08C214.401 1293.29 214.172 1289.73 213.777 1286.33C215.819 1284.81 217.394 1282.75 218.324 1280.38C221.057 1273.38 217.592 1265.48 210.584 1262.75ZM193.255 1269.69L193.293 1269.71C193.169 1269.96 193.053 1270.22 192.946 1270.49C190.213 1277.49 193.678 1285.39 200.686 1288.12C201.124 1288.29 201.569 1288.43 202.021 1288.54C202.299 1291.17 202.487 1293.96 202.473 1297.02C202.461 1299.48 202.321 1302.09 202.112 1304.78C195.016 1304.34 187.451 1304.34 179.574 1304.77C174.067 1299.12 168.504 1294 162.979 1289.52C164.648 1287.4 166.316 1285.38 167.974 1283.56C173.413 1277.59 178.742 1273.35 183.198 1271.14C187.653 1268.93 190.826 1268.75 193.255 1269.69ZM130.017 1282.96C133.092 1284.18 136.418 1285.81 139.905 1287.85C142.033 1289.09 144.228 1290.53 146.457 1292.06C142.52 1297.98 138.733 1304.53 135.165 1311.57C127.521 1313.51 120.311 1315.77 113.673 1318.32C112.668 1315.81 111.747 1313.36 110.999 1311.01C108.55 1303.31 107.546 1296.57 107.857 1291.61C108.169 1286.64 109.601 1283.81 111.636 1282.18C113.672 1280.55 116.752 1279.77 121.665 1280.55C124.122 1280.94 126.943 1281.74 130.017 1282.96ZM230.812 1322.27C233.9 1323.46 236.522 1324.77 238.594 1326.15C242.738 1328.9 244.478 1331.56 244.872 1334.14C245.267 1336.72 244.399 1339.77 241.267 1343.64C238.135 1347.5 232.833 1351.78 225.821 1355.79C223.681 1357.01 221.343 1358.19 218.904 1359.36C215.743 1352.99 211.967 1346.45 207.657 1339.84C209.798 1332.24 211.441 1324.86 212.555 1317.84C215.231 1318.22 217.821 1318.65 220.228 1319.17C224.172 1320.04 227.723 1321.09 230.812 1322.27ZM156.011 1299.23C158.61 1301.35 161.224 1303.74 163.862 1306.18C161.652 1306.46 159.447 1306.73 157.206 1307.07C154.968 1307.41 152.779 1307.82 150.591 1308.22C152.38 1305.1 154.167 1302.03 156.011 1299.23ZM200.671 1316.64C200.127 1319.96 199.366 1323.43 198.572 1326.93C197.23 1325.16 195.895 1323.38 194.48 1321.61C193.063 1319.84 191.622 1318.15 190.182 1316.45C193.775 1316.44 197.317 1316.45 200.671 1316.64ZM174.789 1317.04C178.298 1320.83 181.781 1324.82 185.178 1329.06C188.577 1333.3 191.716 1337.58 194.645 1341.83C193.122 1346.76 191.398 1351.77 189.425 1356.83C187.452 1361.89 185.329 1366.74 183.114 1371.4C178.079 1372.55 172.874 1373.57 167.5 1374.39C162.128 1375.21 156.863 1375.79 151.717 1376.2C148.208 1372.41 144.726 1368.42 141.329 1364.18C137.93 1359.94 134.791 1355.66 131.862 1351.41C133.385 1346.48 135.109 1341.47 137.082 1336.41C139.055 1331.36 141.177 1326.5 143.393 1321.84C148.428 1320.7 153.633 1319.67 159.007 1318.85C164.378 1318.03 169.644 1317.45 174.789 1317.04ZM128.531 1325.87C127.665 1327.92 126.803 1329.97 125.979 1332.08C125.155 1334.2 124.401 1336.29 123.65 1338.39C121.846 1335.28 120.09 1332.2 118.581 1329.2C121.722 1328.01 125.102 1326.93 128.531 1325.87ZM202.857 1354.86C204.66 1357.96 206.417 1361.04 207.926 1364.04C204.785 1365.23 201.405 1366.31 197.976 1367.37C198.842 1365.32 199.704 1363.27 200.528 1361.16C201.351 1359.05 202.106 1356.95 202.857 1354.86ZM107.603 1333.88C110.764 1340.25 114.54 1346.8 118.85 1353.4C116.709 1361 115.066 1368.38 113.952 1375.41C111.276 1375.02 108.685 1374.6 106.278 1374.07C98.3904 1372.34 92.0571 1369.84 87.9131 1367.09C83.769 1364.34 82.0287 1361.68 81.6344 1359.1C81.5925 1358.83 81.6268 1358.52 81.6146 1358.24C87.8793 1359.15 93.9453 1355.62 96.2547 1349.73C97.4521 1346.65 97.4884 1343.24 96.357 1340.13C97.7275 1339.23 99.1454 1338.33 100.686 1337.45C102.826 1336.23 105.164 1335.05 107.603 1333.88ZM212.834 1374.92C213.839 1377.43 214.76 1379.88 215.508 1382.23C217.957 1389.93 218.961 1396.67 218.649 1401.63C218.338 1406.6 216.906 1409.44 214.87 1411.07C214.121 1411.67 213.166 1412.1 212.094 1412.44C210.545 1409.95 208.236 1408.03 205.508 1406.96C201.227 1405.29 196.396 1405.9 192.658 1408.57C190.699 1407.64 188.695 1406.62 186.602 1405.39C184.474 1404.15 182.279 1402.71 180.049 1401.18C183.986 1395.26 187.773 1388.71 191.341 1381.67C198.986 1379.73 206.196 1377.47 212.834 1374.92ZM127.935 1366.31C129.276 1368.08 130.611 1369.87 132.027 1371.63C133.444 1373.4 134.885 1375.09 136.325 1376.79C132.731 1376.8 129.189 1376.79 125.835 1376.6C126.38 1373.28 127.141 1369.82 127.935 1366.31ZM175.916 1385.02C174.127 1388.14 172.34 1391.21 170.495 1394.02C167.896 1391.89 165.283 1389.5 162.645 1387.06C164.854 1386.78 167.06 1386.51 169.301 1386.17C171.539 1385.83 173.728 1385.42 175.916 1385.02ZM146.933 1388.47C152.439 1394.12 158.003 1399.24 163.527 1403.72C161.859 1405.84 160.19 1407.86 158.533 1409.68C153.094 1415.65 147.764 1419.89 143.309 1422.1C138.854 1424.32 135.681 1424.5 133.251 1423.55C130.821 1422.6 128.609 1420.32 126.828 1415.68C125.047 1411.03 123.996 1404.3 124.034 1396.23C124.046 1393.77 124.186 1391.15 124.394 1388.46C131.49 1388.9 139.056 1388.9 146.933 1388.47Z" fill="white"/>
</g>
</g>
<g opacity="0.3" filter="url(#filter1_f_261_922)">
<g clip-path="url(#clip1_261_922)">
<path d="M1748.14 1689.95C1746.81 1689.15 1745.13 1688.98 1743.64 1689.68L1720.02 1700.52C1717.64 1701.65 1716.53 1704.52 1717.66 1706.9C1718.22 1707.91 1718.94 1708.64 1719.94 1709.15L1720.08 1709.23C1726.38 1712.45 1733.19 1714.68 1740.22 1715.75C1742.88 1716.21 1745.68 1717.1 1748.11 1718.35C1759.7 1724.28 1765.1 1738.08 1760.67 1750.26C1752.76 1772.04 1737.34 1790.15 1717.09 1801.46L1709.07 1805.84C1704.29 1808.45 1698.68 1808.47 1693.96 1806.05C1691.81 1804.95 1689.82 1803.2 1688.33 1801.18L1687.69 1800.31C1682.37 1793.06 1673.78 1788.66 1664.87 1788.43L1663.64 1788.35C1661.13 1788.33 1658.69 1787.8 1656.4 1786.63C1651.68 1784.21 1648.49 1779.5 1647.75 1774.24L1646.61 1765.17C1643.96 1742.13 1649.66 1719.03 1662.72 1699.89C1670.09 1689.03 1684.36 1685.5 1695.95 1691.44C1698.38 1692.69 1700.6 1694.37 1702.52 1696.25C1704.44 1698.14 1707.46 1698.24 1709.35 1696.32C1711.24 1694.4 1711.34 1691.38 1709.42 1689.49C1706.78 1686.87 1703.64 1684.54 1700.35 1682.86C1684.47 1674.72 1664.79 1679.63 1654.64 1694.49C1640.27 1715.49 1634.05 1741.03 1636.97 1766.37L1638.1 1775.44C1638.16 1776.38 1638.3 1777.17 1638.58 1778.04L1617.68 1767.33C1603.52 1760.07 1585.99 1765.73 1578.73 1779.89C1571.47 1794.06 1576.98 1811.88 1591.14 1819.13L1712.78 1881.45C1715.21 1882.7 1718.03 1881.79 1719.27 1879.36C1720.52 1876.93 1719.61 1874.12 1717.18 1872.87L1595.54 1810.55C1586.1 1805.71 1582.33 1794.02 1587.17 1784.58C1592.01 1775.13 1603.69 1771.36 1613.14 1776.2L1734.78 1838.52C1737.21 1839.77 1740.02 1838.86 1741.27 1836.43C1742.51 1834 1741.61 1831.18 1739.17 1829.94L1711.13 1815.57C1711.85 1815.22 1712.79 1814.79 1713.51 1814.44L1721.54 1810.06C1743.81 1797.62 1760.76 1777.58 1769.55 1753.72C1775.69 1736.81 1768.32 1718.04 1752.29 1709.83C1748.86 1708.07 1745.27 1706.96 1741.47 1706.27C1738.95 1705.89 1736.51 1705.36 1734.22 1704.55L1747.66 1698.42C1750.04 1697.3 1751.15 1694.43 1750.02 1692.05C1749.6 1691.15 1748.93 1690.44 1748.14 1689.95ZM1684.67 1699.38C1683.83 1698.95 1682.85 1698.76 1681.85 1698.85C1677.25 1699.38 1673.05 1701.93 1670.5 1705.86C1669.11 1707.86 1667.87 1709.94 1666.55 1712.15C1665.16 1714.51 1666 1717.47 1668.43 1718.72L1668.57 1718.79C1670.86 1719.96 1673.67 1719.05 1674.99 1716.84C1676.16 1714.91 1677.25 1713.12 1678.35 1711.33C1679.44 1709.9 1681.11 1708.77 1683.05 1708.5C1685.72 1708.24 1687.54 1705.74 1687.28 1703.08C1687.12 1701.42 1686.08 1700.08 1684.67 1699.38ZM1666.5 1724.95C1664.13 1723.74 1661.22 1724.67 1660 1727.05C1658.79 1729.42 1659.73 1732.32 1662.1 1733.54C1664.47 1734.75 1667.38 1733.82 1668.59 1731.44C1669.8 1729.07 1668.87 1726.17 1666.5 1724.95Z" fill="white"/>
</g>
</g>
<g opacity="0.3" filter="url(#filter2_f_261_922)">
<path d="M1648.18 146.798C1646.64 147.017 1645.24 147.953 1644.53 149.444L1633.2 172.833C1632.07 175.219 1633.04 178.133 1635.43 179.257C1636.51 179.679 1637.52 179.786 1638.62 179.545L1638.77 179.511C1645.68 177.997 1652.36 175.385 1658.47 171.741C1660.81 170.405 1663.54 169.313 1666.21 168.728C1678.93 165.942 1691.87 173.152 1696.19 185.374C1703.94 207.215 1703.55 231.002 1695.11 252.602L1691.7 261.084C1689.68 266.135 1685.36 269.716 1680.18 270.851C1677.82 271.367 1675.17 271.29 1672.73 270.672L1671.68 270.406C1662.97 268.199 1653.55 270.263 1646.52 275.753L1645.52 276.466C1643.57 278.047 1641.35 279.191 1638.83 279.741C1633.65 280.876 1628.2 279.272 1624.28 275.685L1617.64 269.404C1600.95 253.308 1590.65 231.858 1588.56 208.778C1587.35 195.711 1596.12 183.914 1608.84 181.128C1611.51 180.543 1614.29 180.43 1616.97 180.665C1619.66 180.9 1622.05 179.059 1622.29 176.374C1622.52 173.689 1620.68 171.293 1617.99 171.058C1614.3 170.715 1610.39 170.912 1606.78 171.703C1589.34 175.522 1577.28 191.827 1578.9 209.743C1581.16 235.091 1592.59 258.759 1610.96 276.465L1617.6 282.746C1618.24 283.428 1618.85 283.954 1619.62 284.445L1596.69 289.467C1581.14 292.873 1571.2 308.381 1574.61 323.931C1578.01 339.481 1593.59 349.73 1609.14 346.325L1742.65 317.085C1745.32 316.501 1746.91 314.011 1746.33 311.341C1745.74 308.671 1743.25 307.076 1740.58 307.661L1607.07 336.901C1596.71 339.171 1586.37 332.547 1584.1 322.18C1581.83 311.814 1588.45 301.474 1598.82 299.204L1732.33 269.965C1735 269.38 1736.59 266.891 1736.01 264.221C1735.42 261.55 1732.93 259.956 1730.26 260.541L1699.48 267.283C1699.81 266.551 1700.27 265.627 1700.6 264.896L1704.01 256.414C1713.29 232.654 1713.63 206.406 1705.25 182.4C1699.23 165.447 1681.61 155.646 1664.02 159.499C1660.25 160.324 1656.77 161.743 1653.4 163.634C1651.22 164.935 1649 166.079 1646.71 166.909L1653.19 153.64C1654.31 151.254 1653.35 148.337 1650.96 147.213C1650.07 146.792 1649.1 146.666 1648.18 146.798ZM1605.18 194.423C1604.26 194.633 1603.38 195.1 1602.67 195.811C1599.46 199.149 1597.84 203.786 1598.37 208.444C1598.57 210.869 1598.93 213.259 1599.32 215.806C1599.75 218.511 1602.27 220.262 1604.94 219.677L1605.1 219.643C1607.61 219.092 1609.2 216.603 1608.81 214.055C1608.49 211.822 1608.2 209.746 1607.91 207.67C1607.84 205.873 1608.41 203.938 1609.74 202.494C1611.63 200.599 1611.44 197.513 1609.55 195.623C1608.36 194.442 1606.71 194.073 1605.18 194.423ZM1607.42 225.719C1604.81 226.289 1603.17 228.861 1603.73 231.463C1604.3 234.066 1606.88 235.713 1609.48 235.143C1612.08 234.573 1613.73 232.002 1613.16 229.399C1612.59 226.797 1610.02 225.149 1607.42 225.719Z" fill="white"/>
</g>
<g opacity="0.3" filter="url(#filter3_f_261_922)">
<g clip-path="url(#clip2_261_922)">
<path d="M88.3615 1736.78C76.2068 1742.49 70.9376 1757.09 76.645 1769.24L136.142 1895.95C141.629 1907.63 156.219 1911.6 167.881 1906.12L285.686 1850.81L282.229 1843.44L164.423 1898.76C156.478 1902.49 146.894 1899.71 143.505 1892.49C140.117 1885.27 144.224 1876.79 152.322 1872.99L270.128 1817.67L206.167 1681.46L88.3615 1736.78ZM91.8188 1744.14L202.261 1692.28L259.308 1813.77L148.865 1865.63C143.368 1868.21 139.09 1872.63 136.591 1877.76L84.0078 1765.78C80.1695 1757.61 83.6447 1747.98 91.8188 1744.14ZM140.062 1748.45C133.748 1755.42 126.822 1770.84 134.532 1787.26C144.003 1807.43 163.138 1808.21 177.708 1802.66L188.08 1824.75L195.443 1821.29L185.071 1799.2C198.719 1791.07 209.441 1774.55 200.301 1755.09C192.149 1737.73 174.958 1732.21 163.761 1737.32C155.964 1740.84 151.786 1747.44 158.099 1760.88L174.19 1795.15C160.991 1799.06 150.813 1793.23 145.472 1781.85C139.743 1769.65 142.467 1759.05 146.75 1752.32L140.062 1748.45ZM167.096 1744.74C173.664 1741.66 184.25 1749.61 189.649 1761.11C195.872 1774.36 192.024 1785.06 181.6 1791.81L164.681 1755.78C162.149 1750.39 164.166 1746.12 167.096 1744.74Z" fill="white"/>
</g>
</g>
<g opacity="0.3" filter="url(#filter4_f_261_922)">
<g clip-path="url(#clip3_261_922)">
<path d="M166.481 438.355C153.536 434.785 140.039 442.448 136.47 455.393L99.2612 590.338C95.83 602.782 104.331 615.286 116.751 618.71L242.216 653.304L244.378 645.463L118.913 610.869C110.451 608.535 104.984 600.185 107.103 592.5C109.222 584.815 117.856 581.045 126.481 583.423L251.946 618.018L291.945 472.949L166.481 438.355ZM164.319 446.196L281.942 478.628L246.266 608.014L128.643 575.582C122.789 573.967 116.662 574.546 111.427 576.817L144.311 457.555C146.712 448.849 155.613 443.796 164.319 446.196ZM198.165 480.842C188.834 482.032 173.543 489.243 168.722 506.73C162.799 528.212 176.826 541.249 191.505 546.507L185.018 570.032L192.86 572.194L199.346 548.669C215.001 551.37 233.891 545.792 239.606 525.063C244.705 506.573 235.234 491.202 223.405 487.801C215.195 485.402 207.728 487.699 203.78 502.018L193.717 538.514C181.149 532.898 177.209 521.851 180.55 509.736C184.132 496.742 193.096 490.462 200.728 488.132L198.165 480.842ZM221.113 495.607C228.108 497.536 230.975 510.464 227.599 522.708C223.707 536.823 213.829 542.445 201.517 540.797L212.098 502.424C213.681 496.68 217.992 494.746 221.113 495.607Z" fill="white"/>
</g>
</g>
<g opacity="0.3" filter="url(#filter5_f_261_922)">
<g clip-path="url(#clip4_261_922)">
<path d="M1564.36 902.779C1552.21 908.487 1546.94 923.085 1552.64 935.24L1612.14 1061.95C1617.63 1073.63 1632.22 1077.6 1643.88 1072.12L1761.69 1016.81L1758.23 1009.44L1640.42 1064.76C1632.48 1068.49 1622.89 1065.71 1619.51 1058.49C1616.12 1051.27 1620.22 1042.79 1628.32 1038.99L1746.13 983.674L1682.17 847.462L1564.36 902.779ZM1567.82 910.142L1678.26 858.282L1735.31 979.769L1624.87 1031.63C1619.37 1034.21 1615.09 1038.63 1612.59 1043.76L1560.01 931.783C1556.17 923.608 1559.64 913.98 1567.82 910.142ZM1616.06 914.448C1609.75 921.42 1602.82 936.842 1610.53 953.262C1620 973.432 1639.14 974.213 1653.71 968.661L1664.08 990.749L1671.44 987.292L1661.07 965.203C1674.72 957.074 1685.44 940.552 1676.3 921.088C1668.15 903.727 1650.96 898.21 1639.76 903.319C1631.96 906.837 1627.79 913.437 1634.1 926.882L1650.19 961.151C1636.99 965.057 1626.81 959.228 1621.47 947.853C1615.74 935.652 1618.47 925.052 1622.75 918.319L1616.06 914.448ZM1643.1 910.739C1649.66 907.656 1660.25 915.611 1665.65 927.109C1671.87 940.362 1668.02 951.057 1657.6 957.812L1640.68 921.781C1638.15 916.388 1640.17 912.116 1643.1 910.739Z" fill="white"/>
</g>
</g>
<g opacity="0.3" filter="url(#filter6_f_261_922)">
<g clip-path="url(#clip5_261_922)">
<path d="M1601.81 2303.9C1588.52 2305.76 1579.17 2318.16 1581.04 2331.46L1600.51 2470.08C1602.3 2482.86 1615.07 2490.96 1627.83 2489.17L1756.71 2471.07L1755.58 2463.01L1626.7 2481.11C1618 2482.33 1609.67 2476.84 1608.56 2468.95C1607.45 2461.05 1613.88 2454.16 1622.74 2452.92L1751.62 2434.82L1730.7 2285.8L1601.81 2303.9ZM1602.94 2311.95L1723.77 2294.99L1742.43 2427.9L1621.61 2444.86C1615.59 2445.71 1610.2 2448.67 1606.3 2452.83L1589.1 2330.32C1587.84 2321.38 1594 2313.21 1602.94 2311.95ZM1647.77 2330.3C1639.68 2335.1 1628.51 2347.79 1631.03 2365.75C1634.13 2387.82 1652.19 2394.21 1667.75 2393.21L1671.14 2417.37L1679.19 2416.24L1675.8 2392.08C1691.24 2388.33 1706.36 2375.71 1703.37 2354.42C1700.7 2335.42 1685.9 2325.08 1673.7 2326.66C1665.21 2327.72 1659.27 2332.79 1661.34 2347.5L1666.6 2384.99C1652.84 2384.83 1644.83 2376.26 1643.08 2363.81C1641.21 2350.47 1646.94 2341.14 1653.02 2335.97L1647.77 2330.3ZM1674.7 2334.73C1681.88 2333.72 1689.65 2344.45 1691.41 2357.03C1693.45 2371.53 1686.62 2380.61 1674.66 2383.99L1669.13 2344.57C1668.3 2338.67 1671.49 2335.18 1674.7 2334.73Z" fill="white"/>
</g>
</g>
<g opacity="0.3" filter="url(#filter7_f_261_922)">
<path d="M1696.94 1306.89L1535.39 1367.53C1531.14 1369.13 1528.63 1374.05 1529.78 1378.52L1563.02 1508.07C1564.17 1512.55 1568.54 1514.88 1572.79 1513.28L1734.34 1452.64C1738.59 1451.04 1741.1 1446.13 1739.95 1441.65L1706.71 1312.1C1705.56 1307.63 1701.19 1305.29 1696.94 1306.89Z" stroke="white" stroke-width="8" stroke-linecap="round" stroke-linejoin="round"/>
<path d="M1705.06 1440.1C1692 1444.98 1678.54 1437.82 1675.01 1424.11C1671.47 1410.39 1679.19 1395.32 1692.25 1390.44" stroke="white" stroke-width="8" stroke-linecap="round" stroke-linejoin="round"/>
<path d="M1643.92 1462.04L1631.12 1412.37L1649.34 1432.79L1654.77 1403.54L1667.57 1453.2" stroke="white" stroke-width="8" stroke-linecap="round" stroke-linejoin="round"/>
<path d="M1610.43 1455.63L1625.43 1450.39" stroke="white" stroke-width="8" stroke-linecap="round" stroke-linejoin="round"/>
<path d="M1605.78 1438.75L1620.77 1433.52" stroke="white" stroke-width="8" stroke-linecap="round" stroke-linejoin="round"/>
<path d="M1669.66 1350.37C1668.07 1344.17 1670.79 1337.28 1676.2 1333.8C1681.61 1330.33 1688.25 1331.21 1692.14 1335.92C1696.03 1340.64 1696.13 1347.91 1692.38 1353.39L1676.42 1376.7L1701.44 1367.31" stroke="white" stroke-width="8" stroke-linecap="round" stroke-linejoin="round"/>
<path d="M1600.09 1476.78L1584.32 1482.67C1579.97 1484.29 1575.49 1481.91 1574.31 1477.33L1565.77 1444.22C1564.59 1439.65 1567.17 1434.63 1571.52 1433L1587.29 1427.11" stroke="white" stroke-width="8" stroke-linecap="round" stroke-linejoin="round"/>
<path d="M1570.62 1460.29L1585.61 1455.05" stroke="white" stroke-width="8" stroke-linecap="round" stroke-linejoin="round"/>
</g>
<g opacity="0.3" filter="url(#filter8_f_261_922)">
<path d="M179.94 865.889L18.392 926.533C14.1434 928.128 11.6294 933.046 12.7768 937.518L46.018 1067.07C47.1654 1071.55 51.5397 1073.88 55.7883 1072.28L217.336 1011.64C221.585 1010.04 224.099 1005.13 222.952 1000.65L189.71 871.098C188.563 866.626 184.189 864.294 179.94 865.889Z" stroke="white" stroke-width="8" stroke-linecap="round" stroke-linejoin="round"/>
<path d="M188.057 999.104C174.996 1003.98 161.541 996.822 158.005 983.108C154.469 969.393 162.191 954.32 175.253 949.44" stroke="white" stroke-width="8" stroke-linecap="round" stroke-linejoin="round"/>
<path d="M126.92 1021.04L114.115 971.372L132.342 991.787L137.765 962.537L150.57 1012.2" stroke="white" stroke-width="8" stroke-linecap="round" stroke-linejoin="round"/>
<path d="M93.4321 1014.63L108.427 1009.39" stroke="white" stroke-width="8" stroke-linecap="round" stroke-linejoin="round"/>
<path d="M88.7783 997.754L103.774 992.515" stroke="white" stroke-width="8" stroke-linecap="round" stroke-linejoin="round"/>
<path d="M152.656 909.367C151.066 903.174 153.791 896.28 159.201 892.805C164.611 889.329 171.245 890.212 175.138 894.925C179.031 899.638 179.13 906.908 175.377 912.39L159.415 935.704L184.437 926.314" stroke="white" stroke-width="8" stroke-linecap="round" stroke-linejoin="round"/>
<path d="M83.0906 1035.78L67.3241 1041.67C62.9703 1043.29 58.4854 1040.91 57.3067 1036.33L48.7703 1003.22C47.5917 998.653 50.1657 993.629 54.5195 992.002L70.286 986.112" stroke="white" stroke-width="8" stroke-linecap="round" stroke-linejoin="round"/>
<path d="M53.6172 1019.29L68.6125 1014.05" stroke="white" stroke-width="8" stroke-linecap="round" stroke-linejoin="round"/>
</g>
<g opacity="0.3" filter="url(#filter9_f_261_922)">
<g clip-path="url(#clip6_261_922)">
<path d="M165.744 2346.65C113.523 2340.34 65.9638 2377.64 59.6508 2429.86C53.3378 2482.08 90.6383 2529.64 142.859 2535.95C195.08 2542.27 242.639 2504.96 248.953 2452.74C255.266 2400.52 217.965 2352.96 165.744 2346.65ZM164.654 2355.66C212.004 2361.39 245.662 2404.3 239.938 2451.65C234.214 2499 191.298 2532.66 143.949 2526.94C96.5998 2521.21 62.9411 2478.3 68.6652 2430.95C74.3893 2383.6 117.305 2349.94 164.654 2355.66ZM159.654 2396.22C159.109 2396.16 158.558 2396.21 158.03 2396.35L87.1615 2415.22C85.372 2415.7 84.0542 2417.22 83.8318 2419.06C83.6094 2420.9 84.5271 2422.69 86.1505 2423.59L150.489 2458.8C151.513 2459.36 152.714 2459.51 153.843 2459.21L218.232 2442.06L215.768 2462.45C215.548 2464.07 216.219 2465.69 217.524 2466.68C218.829 2467.67 220.566 2467.88 222.069 2467.23C223.572 2466.58 224.608 2465.17 224.782 2463.54L228.051 2436.5C228.053 2436.48 228.055 2436.47 228.057 2436.45C228.057 2436.42 228.058 2436.39 228.058 2436.36C228.072 2436.24 228.081 2436.12 228.084 2436C228.132 2434.03 226.903 2432.26 225.043 2431.61L161.384 2396.76C160.849 2396.46 160.261 2396.28 159.654 2396.22ZM158.619 2405.59L211.413 2434.49L153.253 2449.97L100.459 2421.07L158.619 2405.59ZM112.584 2445.34C110.094 2445.08 107.862 2446.88 107.595 2449.37L105.457 2467.06C105.311 2468.29 105.672 2469.52 106.455 2470.48C106.455 2470.48 120.606 2487.53 148.308 2490.88C176.01 2494.23 193.817 2481.04 193.817 2481.04C194.806 2480.3 195.45 2479.18 195.601 2477.96L197.739 2460.27C197.958 2458.65 197.287 2457.03 195.982 2456.04C194.677 2455.06 192.941 2454.85 191.438 2455.5C189.935 2456.15 188.898 2457.55 188.725 2459.18L186.869 2474.53C184.932 2475.91 172.117 2484.61 149.398 2481.87C126.678 2479.12 116.307 2467.61 114.754 2465.82L116.61 2450.46C116.774 2449.25 116.438 2448.02 115.68 2447.05C114.922 2446.09 113.805 2445.47 112.584 2445.34Z" fill="white"/>
</g>
</g>
<g opacity="0.3" filter="url(#filter10_f_261_922)">
<g clip-path="url(#clip7_261_922)">
<path d="M114.818 40.9366C63.3232 51.6695 30.204 102.23 40.937 153.724C51.6699 205.219 102.23 238.338 153.725 227.605C205.219 216.872 238.338 166.312 227.605 114.817C216.872 63.3228 166.312 30.2036 114.818 40.9366ZM116.67 49.8256C163.361 40.0939 208.985 69.9795 218.716 116.67C228.448 163.36 198.562 208.984 151.872 218.716C105.181 228.448 59.5576 198.562 49.8259 151.872C40.0943 105.181 69.9798 59.5572 116.67 49.8256ZM124.912 89.8458C124.379 89.9695 123.872 90.1886 123.417 90.4927L62.3161 131.053C60.7746 132.081 60.0125 133.943 60.3906 135.757C60.7687 137.571 62.211 138.973 64.0349 139.3L136.26 152.071C137.41 152.276 138.595 152.029 139.568 151.382L195.083 114.531L199.273 134.635C199.584 136.243 200.737 137.558 202.29 138.078C203.843 138.597 205.555 138.24 206.771 137.144C207.987 136.047 208.519 134.381 208.162 132.782L202.604 106.116C202.601 106.101 202.598 106.087 202.595 106.072C202.586 106.044 202.577 106.015 202.568 105.987C202.542 105.869 202.512 105.751 202.476 105.635C201.891 103.753 200.159 102.464 198.188 102.444L126.724 89.8033C126.123 89.6956 125.507 89.7101 124.912 89.8458ZM126.931 99.0534L186.197 109.535L136.053 142.821L76.7867 132.34L126.931 99.0534ZM96.0414 151.451C93.5982 152 92.0609 154.424 92.6054 156.868L96.2403 174.307C96.4946 175.517 97.231 176.57 98.2794 177.225C98.2794 177.225 117.145 188.854 144.461 183.16C171.778 177.467 184.426 159.269 184.426 159.269C185.126 158.25 185.38 156.99 185.13 155.78L181.495 138.341C181.184 136.733 180.031 135.418 178.478 134.898C176.925 134.379 175.213 134.736 173.997 135.832C172.781 136.929 172.249 138.595 172.606 140.193L175.762 155.332C174.367 157.252 165.012 169.602 142.608 174.271C120.205 178.941 106.696 171.357 104.65 170.154L101.494 155.015C101.26 153.81 100.549 152.752 99.5214 152.08C98.4942 151.409 97.2388 151.182 96.0414 151.451Z" fill="white"/>
</g>
</g>
<g opacity="0.3" filter="url(#filter11_f_261_922)">
<g clip-path="url(#clip8_261_922)">
<rect x="1483" y="2013.87" width="227" height="227" transform="rotate(-12.9491 1483 2013.87)" fill="black"/>
<path d="M1597.68 2006.13C1546.42 2017.92 1514.34 2069.15 1526.13 2120.41C1537.92 2171.67 1589.15 2203.75 1640.41 2191.96C1691.68 2180.18 1723.75 2128.95 1711.96 2077.68C1700.18 2026.42 1648.95 1994.34 1597.68 2006.13ZM1599.72 2014.98C1646.2 2004.29 1692.43 2033.24 1703.11 2079.72C1713.8 2126.2 1684.86 2172.43 1638.38 2183.11C1591.9 2193.8 1545.67 2164.86 1534.98 2118.38C1524.29 2071.9 1553.24 2025.67 1599.72 2014.98ZM1608.78 2054.82C1608.25 2054.96 1607.75 2055.19 1607.3 2055.5L1547.04 2097.31C1545.52 2098.37 1544.8 2100.24 1545.21 2102.05C1545.63 2103.85 1547.1 2105.23 1548.93 2105.52L1621.4 2116.8C1622.56 2116.98 1623.73 2116.71 1624.69 2116.05L1679.44 2078.06L1684.04 2098.08C1684.39 2099.68 1685.57 2100.97 1687.13 2101.46C1688.69 2101.95 1690.4 2101.55 1691.59 2100.43C1692.78 2099.31 1693.28 2097.63 1692.89 2096.04L1686.79 2069.5C1686.78 2069.48 1686.78 2069.47 1686.78 2069.45C1686.77 2069.42 1686.76 2069.4 1686.75 2069.37C1686.72 2069.25 1686.69 2069.13 1686.65 2069.02C1686.03 2067.15 1684.27 2065.9 1682.3 2065.92L1610.59 2054.74C1609.99 2054.65 1609.37 2054.68 1608.78 2054.82ZM1610.99 2063.99L1670.46 2073.25L1621 2107.56L1561.54 2098.3L1610.99 2063.99ZM1581.18 2117.01C1578.75 2117.61 1577.26 2120.06 1577.85 2122.49L1581.85 2139.86C1582.12 2141.06 1582.88 2142.1 1583.94 2142.73C1583.94 2142.73 1603.04 2153.97 1630.24 2147.72C1657.43 2141.46 1669.7 2123.01 1669.7 2123.01C1670.38 2121.98 1670.61 2120.71 1670.34 2119.51L1666.34 2102.15C1666 2100.55 1664.82 2099.26 1663.26 2098.77C1661.69 2098.28 1659.99 2098.67 1658.8 2099.79C1657.6 2100.91 1657.11 2102.59 1657.5 2104.18L1660.96 2119.25C1659.61 2121.2 1650.51 2133.74 1628.2 2138.87C1605.9 2144 1592.24 2136.69 1590.17 2135.53L1586.7 2120.46C1586.44 2119.26 1585.71 2118.22 1584.67 2117.57C1583.63 2116.92 1582.37 2116.71 1581.18 2117.01Z" fill="white"/>
</g>
<rect x="1483.6" y="2014.24" width="226" height="226" transform="rotate(-12.9491 1483.6 2014.24)" stroke="black"/>
</g>
<g opacity="0.3" filter="url(#filter12_f_261_922)">
<path d="M126.718 2038.15L128.215 2025Z" fill="black"/>
<path d="M126.718 2038.15L128.215 2025" stroke="white" stroke-width="11" stroke-linecap="round" stroke-linejoin="round"/>
<path d="M173.643 2068.1L182.963 2060.61Z" fill="black"/>
<path d="M173.643 2068.1L182.963 2060.61" stroke="white" stroke-width="11" stroke-linecap="round" stroke-linejoin="round"/>
<path d="M187.821 2127.15L199.501 2128.83Z" fill="black"/>
<path d="M187.821 2127.15L199.501 2128.83" stroke="white" stroke-width="11" stroke-linecap="round" stroke-linejoin="round"/>
<path d="M160.723 2179.97L168.374 2190.47Z" fill="black"/>
<path d="M160.723 2179.97L168.374 2190.47" stroke="white" stroke-width="11" stroke-linecap="round" stroke-linejoin="round"/>
<path d="M74.7565 2054.12L67.106 2043.63Z" fill="black"/>
<path d="M74.7565 2054.12L67.106 2043.63" stroke="white" stroke-width="11" stroke-linecap="round" stroke-linejoin="round"/>
<path d="M47.6592 2106.94L35.979 2105.25Z" fill="black"/>
<path d="M47.6592 2106.94L35.979 2105.25" stroke="white" stroke-width="11" stroke-linecap="round" stroke-linejoin="round"/>
<path d="M61.8364 2165.99L52.5162 2173.48Z" fill="black"/>
<path d="M61.8364 2165.99L52.5162 2173.48" stroke="white" stroke-width="11" stroke-linecap="round" stroke-linejoin="round"/>
<path d="M88.0684 2159.24L86.2627 2178.66C84.962 2192.65 94.6185 2205.88 107.831 2208.21C121.044 2210.54 132.809 2201.09 134.11 2187.1L135.915 2167.68" fill="black"/>
<path d="M88.0684 2159.24L86.2627 2178.66C84.962 2192.65 94.6185 2205.88 107.831 2208.21C121.044 2210.54 132.809 2201.09 134.11 2187.1L135.915 2167.68" stroke="white" stroke-width="11" stroke-linecap="round" stroke-linejoin="round"/>
<path d="M69.755 2108.56C67.1476 2136.64 86.5176 2163.21 113.019 2167.89C139.52 2172.58 163.118 2153.61 165.725 2125.52C168.332 2097.44 148.963 2070.88 122.461 2066.19C95.9597 2061.51 72.3624 2080.48 69.755 2108.56Z" fill="black" stroke="white" stroke-width="11" stroke-linecap="round" stroke-linejoin="round"/>
<path d="M107.266 2209.08L105.769 2222.23Z" fill="black"/>
<path d="M107.266 2209.08L105.769 2222.23" stroke="white" stroke-width="11" stroke-linecap="round" stroke-linejoin="round"/>
</g>
<g opacity="0.3" filter="url(#filter13_f_261_922)">
<path d="M1588.56 527.858L1583.5 515.628Z" fill="black"/>
<path d="M1588.56 527.858L1583.5 515.628" stroke="white" stroke-width="11" stroke-linecap="round" stroke-linejoin="round"/>
<path d="M1644.12 531.355L1648.65 520.288Z" fill="black"/>
<path d="M1644.12 531.355L1648.65 520.288" stroke="white" stroke-width="11" stroke-linecap="round" stroke-linejoin="round"/>
<path d="M1685.11 576.158L1696.14 571.978Z" fill="black"/>
<path d="M1685.11 576.158L1696.14 571.978" stroke="white" stroke-width="11" stroke-linecap="round" stroke-linejoin="round"/>
<path d="M1686.96 635.499L1698.74 640.976Z" fill="black"/>
<path d="M1686.96 635.499L1698.74 640.976" stroke="white" stroke-width="11" stroke-linecap="round" stroke-linejoin="round"/>
<path d="M1550.82 566.983L1539.05 561.506Z" fill="black"/>
<path d="M1550.82 566.983L1539.05 561.506" stroke="white" stroke-width="11" stroke-linecap="round" stroke-linejoin="round"/>
<path d="M1552.67 626.316L1541.64 630.496Z" fill="black"/>
<path d="M1552.67 626.316L1541.64 630.496" stroke="white" stroke-width="11" stroke-linecap="round" stroke-linejoin="round"/>
<path d="M1593.67 671.127L1589.14 682.194Z" fill="black"/>
<path d="M1593.67 671.127L1589.14 682.194" stroke="white" stroke-width="11" stroke-linecap="round" stroke-linejoin="round"/>
<path d="M1613.35 652.522L1621.17 670.389C1626.8 683.26 1641.66 690.164 1654.35 685.809C1667.04 681.454 1672.76 667.49 1667.13 654.619L1659.31 636.752" fill="black"/>
<path d="M1613.35 652.522L1621.17 670.389C1626.8 683.26 1641.66 690.164 1654.35 685.809C1667.04 681.454 1672.76 667.49 1667.13 654.619L1659.31 636.752" stroke="white" stroke-width="11" stroke-linecap="round" stroke-linejoin="round"/>
<path d="M1572.8 617.041C1584.11 642.877 1613.92 656.746 1639.37 648.017C1664.83 639.289 1676.3 611.268 1664.99 585.432C1653.67 559.596 1623.87 545.728 1598.41 554.456C1572.95 563.185 1561.48 591.205 1572.8 617.041Z" fill="black" stroke="white" stroke-width="11" stroke-linecap="round" stroke-linejoin="round"/>
<path d="M1654.28 686.845L1659.33 699.075Z" fill="black"/>
<path d="M1654.28 686.845L1659.33 699.075" stroke="white" stroke-width="11" stroke-linecap="round" stroke-linejoin="round"/>
</g>
<defs>
<filter id="filter0_f_261_922" x="7.01562" y="1191.02" width="308.965" height="308.965" filterUnits="userSpaceOnUse" color-interpolation-filters="sRGB">
<feFlood flood-opacity="0" result="BackgroundImageFix"/>
<feBlend mode="normal" in="SourceGraphic" in2="BackgroundImageFix" result="shape"/>
<feGaussianBlur stdDeviation="3.75" result="effect1_foregroundBlur_261_922"/>
</filter>
<filter id="filter1_f_261_922" x="1523.5" y="1601.5" width="320.535" height="320.535" filterUnits="userSpaceOnUse" color-interpolation-filters="sRGB">
<feFlood flood-opacity="0" result="BackgroundImageFix"/>
<feBlend mode="normal" in="SourceGraphic" in2="BackgroundImageFix" result="shape"/>
<feGaussianBlur stdDeviation="3.75" result="effect1_foregroundBlur_261_922"/>
</filter>
<filter id="filter2_f_261_922" x="1501.5" y="100.5" width="285.308" height="285.308" filterUnits="userSpaceOnUse" color-interpolation-filters="sRGB">
<feFlood flood-opacity="0" result="BackgroundImageFix"/>
<feBlend mode="normal" in="SourceGraphic" in2="BackgroundImageFix" result="shape"/>
<feGaussianBlur stdDeviation="3.75" result="effect1_foregroundBlur_261_922"/>
</filter>
<filter id="filter3_f_261_922" x="17.5" y="1640.5" width="316.959" height="316.959" filterUnits="userSpaceOnUse" color-interpolation-filters="sRGB">
<feFlood flood-opacity="0" result="BackgroundImageFix"/>
<feBlend mode="normal" in="SourceGraphic" in2="BackgroundImageFix" result="shape"/>
<feGaussianBlur stdDeviation="3.75" result="effect1_foregroundBlur_261_922"/>
</filter>
<filter id="filter4_f_261_922" x="45.5" y="395.5" width="294.173" height="294.173" filterUnits="userSpaceOnUse" color-interpolation-filters="sRGB">
<feFlood flood-opacity="0" result="BackgroundImageFix"/>
<feBlend mode="normal" in="SourceGraphic" in2="BackgroundImageFix" result="shape"/>
<feGaussianBlur stdDeviation="3.75" result="effect1_foregroundBlur_261_922"/>
</filter>
<filter id="filter5_f_261_922" x="1493.5" y="806.5" width="316.959" height="316.959" filterUnits="userSpaceOnUse" color-interpolation-filters="sRGB">
<feFlood flood-opacity="0" result="BackgroundImageFix"/>
<feBlend mode="normal" in="SourceGraphic" in2="BackgroundImageFix" result="shape"/>
<feGaussianBlur stdDeviation="3.75" result="effect1_foregroundBlur_261_922"/>
</filter>
<filter id="filter6_f_261_922" x="1531.5" y="2253.5" width="271.359" height="271.359" filterUnits="userSpaceOnUse" color-interpolation-filters="sRGB">
<feFlood flood-opacity="0" result="BackgroundImageFix"/>
<feBlend mode="normal" in="SourceGraphic" in2="BackgroundImageFix" result="shape"/>
<feGaussianBlur stdDeviation="3.75" result="effect1_foregroundBlur_261_922"/>
</filter>
<filter id="filter7_f_261_922" x="1518.12" y="1294.76" width="233.491" height="230.66" filterUnits="userSpaceOnUse" color-interpolation-filters="sRGB">
<feFlood flood-opacity="0" result="BackgroundImageFix"/>
<feBlend mode="normal" in="SourceGraphic" in2="BackgroundImageFix" result="shape"/>
<feGaussianBlur stdDeviation="3.75" result="effect1_foregroundBlur_261_922"/>
</filter>
<filter id="filter8_f_261_922" x="1.11865" y="853.756" width="233.491" height="230.66" filterUnits="userSpaceOnUse" color-interpolation-filters="sRGB">
<feFlood flood-opacity="0" result="BackgroundImageFix"/>
<feBlend mode="normal" in="SourceGraphic" in2="BackgroundImageFix" result="shape"/>
<feGaussianBlur stdDeviation="3.75" result="effect1_foregroundBlur_261_922"/>
</filter>
<filter id="filter9_f_261_922" x="20.5" y="2307.5" width="267.604" height="267.604" filterUnits="userSpaceOnUse" color-interpolation-filters="sRGB">
<feFlood flood-opacity="0" result="BackgroundImageFix"/>
<feBlend mode="normal" in="SourceGraphic" in2="BackgroundImageFix" result="shape"/>
<feGaussianBlur stdDeviation="3.75" result="effect1_foregroundBlur_261_922"/>
</filter>
<filter id="filter10_f_261_922" x="-7.5" y="-7.5" width="283.542" height="283.542" filterUnits="userSpaceOnUse" color-interpolation-filters="sRGB">
<feFlood flood-opacity="0" result="BackgroundImageFix"/>
<feBlend mode="normal" in="SourceGraphic" in2="BackgroundImageFix" result="shape"/>
<feGaussianBlur stdDeviation="3.75" result="effect1_foregroundBlur_261_922"/>
</filter>
<filter id="filter11_f_261_922" x="1475.5" y="1955.5" width="287.095" height="287.095" filterUnits="userSpaceOnUse" color-interpolation-filters="sRGB">
<feFlood flood-opacity="0" result="BackgroundImageFix"/>
<feBlend mode="normal" in="SourceGraphic" in2="BackgroundImageFix" result="shape"/>
<feGaussianBlur stdDeviation="3.75" result="effect1_foregroundBlur_261_922"/>
</filter>
<filter id="filter12_f_261_922" x="23.001" y="2011.98" width="189.479" height="223.269" filterUnits="userSpaceOnUse" color-interpolation-filters="sRGB">
<feFlood flood-opacity="0" result="BackgroundImageFix"/>
<feBlend mode="normal" in="SourceGraphic" in2="BackgroundImageFix" result="shape"/>
<feGaussianBlur stdDeviation="3.75" result="effect1_foregroundBlur_261_922"/>
</filter>
<filter id="filter13_f_261_922" x="1525.89" y="502.685" width="186.011" height="209.334" filterUnits="userSpaceOnUse" color-interpolation-filters="sRGB">
<feFlood flood-opacity="0" result="BackgroundImageFix"/>
<feBlend mode="normal" in="SourceGraphic" in2="BackgroundImageFix" result="shape"/>
<feGaussianBlur stdDeviation="3.75" result="effect1_foregroundBlur_261_922"/>
</filter>
<clipPath id="clip0_261_922">
<rect width="227" height="227" fill="white" transform="translate(96.9956 1198.52) rotate(21.3059)"/>
</clipPath>
<clipPath id="clip1_261_922">
<rect width="227" height="227" fill="white" transform="translate(1634.51 1609) rotate(27.128)"/>
</clipPath>
<clipPath id="clip2_261_922">
<rect width="227" height="227" fill="white" transform="translate(25 1744.48) rotate(-25.1532)"/>
</clipPath>
<clipPath id="clip3_261_922">
<rect width="227" height="227" fill="white" transform="translate(113.339 403) rotate(15.4151)"/>
</clipPath>
<clipPath id="clip4_261_922">
<rect width="227" height="227" fill="white" transform="translate(1501 910.484) rotate(-25.1532)"/>
</clipPath>
<clipPath id="clip5_261_922">
<rect width="227" height="227" fill="white" transform="translate(1539 2292.56) rotate(-7.99294)"/>
</clipPath>
<clipPath id="clip6_261_922">
<rect width="227" height="227" fill="white" transform="translate(55.2441 2315) rotate(6.8931)"/>
</clipPath>
<clipPath id="clip7_261_922">
<rect width="227" height="227" fill="white" transform="translate(0 46.3179) rotate(-11.7735)"/>
</clipPath>
<clipPath id="clip8_261_922">
<rect x="1483" y="2013.87" width="227" height="227" transform="rotate(-12.9491 1483 2013.87)" fill="white"/>
</clipPath>
</defs>
</svg>
