<svg width="113" height="113" viewBox="0 0 113 113" fill="none" xmlns="http://www.w3.org/2000/svg">
<g clip-path="url(#clip0_258_185)">
<path d="M14.8078 9.36957C12.8066 9.36957 11.1824 10.9938 11.1824 12.995V89.1287C11.1824 97.1373 17.6755 103.63 25.684 103.63H80.0653H83.6907H87.3161C95.3247 103.63 101.818 97.1373 101.818 89.1287V38.3729C101.818 36.3717 100.194 34.7475 98.1924 34.7475H90.9415V89.1287C90.9415 91.1336 89.3174 92.7542 87.3161 92.7542C85.3149 92.7542 83.6907 91.1336 83.6907 89.1287V12.995C83.6907 10.9938 82.0665 9.36957 80.0653 9.36957H14.8078ZM22.0586 23.8712H72.8145V34.7475H22.0586V23.8712ZM22.0586 49.2492H43.8111V56.5H22.0586V49.2492ZM51.062 49.2492H72.8145V56.5H51.062V49.2492ZM22.0586 63.7508H43.8111V71.0017H22.0586V63.7508ZM51.062 63.7508H72.8145V71.0017H51.062V63.7508ZM22.0586 78.2525H43.8111V85.5033H22.0586V78.2525ZM51.062 78.2525H72.8145V85.5033H51.062V78.2525Z" fill="white"/>
</g>
<defs>
<clipPath id="clip0_258_185">
<rect width="113" height="113" fill="white"/>
</clipPath>
</defs>
</svg>
