<svg width="138" height="138" viewBox="0 0 138 138" fill="none" xmlns="http://www.w3.org/2000/svg">
<g clip-path="url(#clip0_258_94)">
<path d="M24.7251 11.4425V126.558H113.275V40.6363L112.03 39.2527L85.4649 12.6877L84.0813 11.4425H24.7251ZM33.5801 20.2975H77.8551V46.8625H104.42V117.703H33.5801V20.2975ZM86.7101 26.662L98.0556 38.0075H86.7101V26.662ZM52.2586 60.145L51.2901 63.1889L42.7118 89.7539L42.4351 90.4457V95.565H51.2901V91.6909L51.4285 91.1375H60.0067L60.1451 91.6909V95.565H69.0001V90.4457L68.7234 89.7539L60.1451 63.1889L59.1766 60.145H52.2586ZM82.2826 64.5725V73.4275H73.4276V82.2825H82.2826V91.1375H91.1376V82.2825H99.9926V73.4275H91.1376V64.5725H82.2826ZM55.7176 78.1317L57.1012 82.2825H54.334L55.7176 78.1317Z" fill="white"/>
</g>
<defs>
<clipPath id="clip0_258_94">
<rect width="138" height="138" fill="white"/>
</clipPath>
</defs>
</svg>
