<svg width="155" height="155" viewBox="0 0 155 155" fill="none" xmlns="http://www.w3.org/2000/svg">
<g clip-path="url(#clip0_258_82)">
<path opacity="0.3" d="M115.023 120.383H39.9771C37.0182 120.383 34.6167 117.982 34.6167 115.023V39.9771C34.6167 37.0181 37.0182 34.6166 39.9771 34.6166H115.023C117.982 34.6166 120.383 37.0181 120.383 39.9771V115.023C120.383 117.982 117.982 120.383 115.023 120.383Z" fill="white"/>
<path d="M72.1396 61.4187V50.6979H82.8605V61.4187H72.1396ZM72.1396 104.302V72.1395H82.8605V104.302H72.1396Z" fill="white"/>
<path d="M115.023 125.744H39.9772C34.0646 125.744 29.2563 120.935 29.2563 115.023V39.9771C29.2563 34.0645 34.0646 29.2562 39.9772 29.2562H115.023C120.936 29.2562 125.744 34.0645 125.744 39.9771V115.023C125.744 120.935 120.936 125.744 115.023 125.744ZM39.9772 39.9771V115.023H115.028L115.023 39.9771H39.9772Z" fill="white"/>
</g>
<defs>
<clipPath id="clip0_258_82">
<rect width="155" height="155" fill="white"/>
</clipPath>
</defs>
</svg>
