<svg width="132" height="132" viewBox="0 0 132 132" fill="none" xmlns="http://www.w3.org/2000/svg">
<g clip-path="url(#clip0_258_45)">
<path d="M69.0915 10.9449C34.2459 10.9449 25.607 39.512 24.4255 44.2129L13.1018 66.8767C11.8016 69.9005 11.7742 73.0676 13.0108 75.5535C14.0823 77.7091 16.037 79.2386 18.2053 79.7637C19.3996 80.1618 21.0581 80.6556 22.5065 81.0706V87.1749C22.5065 98.0589 32.7975 108.35 43.6815 108.35V121.055H52.1515V99.88H43.6815C37.5068 99.88 30.9765 93.3496 30.9765 87.1749V74.6271L27.8581 73.7751C27.8581 73.7751 23.3398 72.5394 20.604 71.7983C20.5659 71.6924 20.5065 71.1151 20.786 70.4417L32.2172 47.5628L32.5894 46.4792C32.7927 45.4247 37.7899 21.7983 65.0633 19.63C66.8928 16.4156 69.2382 13.5417 71.9782 11.0938C71.0211 11.0345 70.0655 10.9449 69.0915 10.9449ZM90.2665 10.9449V20.2752C88.7093 20.655 87.2655 21.0846 85.957 21.8219L79.5301 15.395L73.5415 21.3836L80.0098 27.8519C79.2455 29.2305 78.6403 30.6119 78.2811 32.1199H69.0915V40.5899H78.2811C78.6404 42.098 79.2455 43.4794 80.0098 44.858L73.5415 51.3263L79.5301 57.3149L85.957 50.8879C87.2655 51.6253 88.7093 52.0549 90.2665 52.4347V61.7649H98.7365V52.4347C100.294 52.0549 101.737 51.6253 103.046 50.8879L109.473 57.3149L115.461 51.3263L108.993 44.858C109.757 43.4794 110.363 42.098 110.722 40.5899H119.911V32.1199H110.722C110.363 30.6119 109.757 29.2305 108.993 27.8519L115.461 21.3836L109.473 15.395L103.046 21.8219C101.737 21.0846 100.294 20.655 98.7365 20.2752V10.9449H90.2665ZM94.5015 27.8849C97.6777 27.8849 99.5209 28.9236 100.862 30.4326C102.204 31.9416 102.971 34.1198 102.971 36.3549C102.971 38.5901 102.204 40.7683 100.862 42.2773C99.5209 43.7863 97.6777 44.8249 94.5015 44.8249C91.3252 44.8249 89.482 43.7863 88.1407 42.2773C86.7994 40.7683 86.0315 38.5901 86.0315 36.3549C86.0315 34.1198 86.7994 31.9416 88.1407 30.4326C89.482 28.9236 91.3252 27.8849 94.5015 27.8849ZM115.205 63.1297C112.198 65.459 108.807 67.299 105.114 68.5145C103.992 71.6907 102.543 74.8206 101.052 78.035C97.8297 84.9592 94.5015 92.1153 94.5015 100.31V121.055H102.971V100.31C102.971 93.9872 105.768 87.9777 108.728 81.6082C111.418 75.8232 114.155 69.8676 115.205 63.1297Z" fill="white"/>
</g>
<defs>
<clipPath id="clip0_258_45">
<rect width="132" height="132" fill="white"/>
</clipPath>
</defs>
</svg>
